<?xml version="1.0" encoding="UTF-8" standalone="no"?>
<!DOCTYPE svg PUBLIC "-//W3C//DTD SVG 1.1//EN" "http://www.w3.org/Graphics/SVG/1.1/DTD/svg11.dtd">
<svg xmlns="http://www.w3.org/2000/svg" version="1.1" viewBox="0 0 228 209" width="228.0pt" height="209.0pt">
<path d="M 0.00 0.00 L 228.00 0.00 L 228.00 209.00 L 0.00 209.00 L 0.00 0.00 Z" fill="#ffffff" />
<path d="M 123.19 12.68 C 129.21 13.25 134.67 15.41 140.20 17.69 C 155.01 24.49 167.07 35.25 177.11 47.94 C 193.29 69.01 204.03 93.86 210.46 119.52 C 211.66 125.39 213.61 130.94 214.10 136.98 C 215.48 142.94 216.47 148.81 216.92 154.92 C 217.17 161.33 218.79 167.50 218.97 173.93 C 219.08 179.63 218.96 185.33 219.00 191.03 C 217.87 191.00 216.74 190.96 215.62 190.92 C 214.23 190.18 212.83 189.45 211.45 188.71 C 209.70 185.50 206.51 184.88 203.80 182.26 C 201.53 179.99 198.51 178.74 196.20 176.57 C 195.09 166.42 193.89 156.22 192.66 146.08 C 190.75 139.68 190.71 133.06 188.44 126.76 C 187.33 120.82 185.13 115.30 183.73 109.45 C 182.47 107.03 181.74 104.45 180.89 101.87 C 176.64 90.70 171.50 80.00 164.82 70.06 C 158.40 59.90 150.15 50.74 140.27 43.84 C 132.24 38.68 123.70 34.77 114.03 34.22 C 105.45 33.93 96.63 35.94 89.10 40.11 C 80.27 44.73 72.25 51.24 66.05 59.07 C 50.83 77.52 41.17 100.25 35.18 123.25 C 33.41 128.20 33.15 133.46 31.54 138.47 C 30.25 144.98 29.95 151.60 28.38 158.08 C 27.87 163.60 27.70 169.13 26.96 174.65 C 23.92 177.93 19.85 179.64 16.65 182.73 C 14.11 185.04 11.12 185.63 9.57 188.78 C 7.74 189.66 5.89 190.51 4.02 191.29 C 4.13 183.20 3.54 174.96 4.66 167.01 C 5.15 162.92 4.77 158.98 5.69 154.93 C 7.19 148.55 7.28 141.91 8.68 135.53 C 10.31 130.26 10.52 124.77 12.40 119.55 C 14.38 110.70 17.54 101.98 20.45 93.37 C 24.59 84.00 28.46 74.60 33.75 65.79 C 41.96 51.20 52.64 38.18 65.80 27.79 C 69.19 25.04 73.12 23.02 76.65 20.42 C 79.02 19.48 81.34 18.49 83.56 17.24 C 85.22 16.73 86.89 16.22 88.55 15.70 C 92.55 13.33 97.67 13.30 102.25 12.10 C 109.24 10.40 116.29 10.82 123.19 12.68 Z" fill="#c62828" />
<path d="M 119.03 49.86 C 131.88 52.44 142.39 60.78 150.62 70.65 C 160.76 83.19 166.92 97.96 171.85 113.18 C 173.35 119.18 175.40 124.87 176.23 131.04 C 178.22 137.47 178.63 144.05 179.30 150.70 C 179.97 155.19 180.81 159.64 181.14 164.18 C 179.58 163.35 178.02 162.52 176.49 161.65 C 174.67 158.73 171.83 157.85 169.31 155.70 C 166.39 153.19 163.31 150.92 160.17 148.70 C 159.80 145.39 158.80 142.25 158.18 138.99 C 156.97 130.05 154.30 121.23 151.40 112.71 C 146.25 98.64 140.06 85.73 128.58 75.68 C 124.43 71.70 119.34 69.94 113.91 68.48 C 112.12 67.98 110.50 68.07 108.72 68.53 C 104.83 69.61 101.19 70.50 97.88 72.89 C 89.15 78.74 83.84 86.85 78.68 95.76 C 70.62 111.35 66.13 128.00 63.31 145.22 C 62.70 147.46 60.79 148.74 59.03 150.04 C 54.34 153.30 50.06 157.09 45.47 160.49 C 44.42 161.64 43.19 162.54 41.90 163.42 C 43.05 156.20 42.63 149.00 44.64 141.92 C 45.26 134.10 47.52 126.81 49.16 119.19 C 50.70 114.92 51.63 110.46 53.34 106.25 C 58.44 91.24 65.79 77.29 76.56 65.55 C 82.52 60.02 89.24 54.54 97.04 51.91 C 104.04 49.13 111.63 48.37 119.03 49.86 Z" fill="#757575" />
</svg>